<?xml version="1.0" encoding="UTF-8"?>
<svg width="128pt" height="128pt" version="1.1" viewBox="0 0 128 128" xmlns="http://www.w3.org/2000/svg">
 <path d="m55.535 29.578c0.125-0.10156 0.23828-0.39453 0.32031-0.57812 0.66016-1.5859 1.2852-3.2383 1.8867-4.9531 0.78516-2.2305 1.5039-4.3711 2.1602-6.4219 0.19531-0.60547 0.29688-0.92188 0.30078-0.92969 0.085937-0.28906 0.17578-0.60937 0.26172-0.94922 0.23828-0.98047 0.42578-1.6602 0.53906-2.0469 0.19922-0.64453 0.56641-1.1055 1.1055-1.3789 0.35547-0.17969 0.71875-0.23828 1.0898-0.17578 0.88672 0.14844 1.4453 0.69531 1.8906 1.4531 0.27344 0.46484 0.5 0.89453 0.67969 1.2852 0.51562 1.1719 0.875 1.9688 1.0781 2.3984 0.23047 0.5 0.42969 0.94922 0.59375 1.3594 0.22656 0.57031 0.42188 1.0156 0.57422 1.3555 0.28516 0.60156 0.62109 1.5195 0.92578 2.2148 0.36328 0.82031 0.57422 1.3984 1 2.4883 0.16406 0.42969 0.37891 0.96094 0.64062 1.6016 0.23828 0.57812 0.46484 1.1602 0.68359 1.75 0.09375 0.25 0.35156 0.89062 0.71875 0.58984 0.33984-0.26172 0.71484-0.51953 1.1211-0.78125 0.53516-0.33984 0.91406-0.58984 1.1406-0.75 0.67969-0.47656 1.2188-0.83984 1.6133-1.0938 1.3945-0.88672 2.6758-1.8047 4.0156-2.6055 0.91016-0.55078 1.9258-1.2812 2.8008-1.7969 1.1445-0.67969 2.3047-1.375 3.4688-2.0781 0.25-0.14453 0.53125-0.28125 0.83594-0.39453 0.73828-0.26562 1.5234-0.22656 2.1836 0.21094 0.65625 0.44141 0.97656 1.2461 0.91016 2.0195-0.03125 0.33984-0.11328 0.72656-0.25391 1.1484-0.20312 0.62109-0.44531 1.2734-0.72656 1.9609-0.55078 1.3555-1.0195 2.5-1.4102 3.4414-0.44531 1.0898-0.82812 1.9883-1.1641 2.7148-0.09375 0.20312-0.15625 0.37891-0.19531 0.51562-0.003907 0.023437-0.003907 0.058594 0.011719 0.085937 0.03125 0.078125 0.10547 0.15625 0.23047 0.21875 1.3203 0.71484 2.5195 1.4453 3.5938 2.1992 0.60156 0.42578 1.3008 0.94141 2.1055 1.5469 0.35938 0.27344 0.80078 0.63672 1.3203 1.0781 2.6953 2.3086 5.0547 4.9219 7.0938 7.8555 0.32422 0.47656 0.64062 0.95312 0.94531 1.4414 0.91406 1.4648 1.6992 2.8789 2.3594 4.2461 0.55469 1.1484 1.1211 2.5117 1.6953 4.0781 0.20312 0.57031 0.37891 1.1133 0.52344 1.6484 0.12109 0.46094 0.28906 1.0312 0.48828 1.7109 0.16406 0.55078 0.28516 1.0391 0.35938 1.4688 0.046875 0.28906 0.12109 0.62109 0.21875 0.98438 0.050781 0.20312 0.10547 0.53906 0.16406 0.99609 0.11328 0.82031 0.25391 1.6406 0.43359 2.4648 0.03125 0.17578 0.058593 0.30078 0.058593 0.37891 0.003907 0.074218 0.011719 0.19922 0.011719 0.375 0.035156 1.3789 0.070312 2.5195 0.11328 3.4102 0.035157 0.57812 0.039063 1.2539 0.015625 1.7188-0.058594 1.2109-0.10938 2.4414-0.12891 3.6914-0.003906 0.23828-0.058594 0.58594-0.10938 0.87109-0.21484 1.1953-0.32812 1.9102-0.35547 2.1406-0.046875 0.51953-0.085937 0.85547-0.12109 0.99609-0.12109 0.45313-0.22656 0.90625-0.32031 1.3633-0.10547 0.47656-0.20312 0.89453-0.30078 1.25-0.10547 0.41016-0.17969 0.69141-0.21484 0.82812-0.066406 0.28125-0.14062 0.55469-0.22656 0.82031-0.48437 1.5312-0.86328 2.6562-1.1367 3.3789-0.56641 1.5156-1.2891 3.1406-2.1914 4.875-0.69922 1.3438-1.5 2.7188-2.4141 4.1367-0.25391 0.39062-0.52344 0.78125-0.82031 1.1719-0.35937 0.47656-0.70312 1.0195-1.125 1.5508-0.41406 0.51953-1.1953 1.5117-1.7969 2.1992-2.5664 2.9297-5.4531 5.5195-8.6758 7.7461-1.7852 1.2383-3.7461 2.3789-5.8906 3.4414-2.0898 1.0234-4.4531 1.9414-7.0938 2.7344-0.47656 0.14453-0.89844 0.26172-1.3008 0.35938-0.375 0.085938-0.66406 0.16016-0.86328 0.22656-0.26953 0.078125-0.55859 0.14453-0.87109 0.19922-0.42969 0.066407-0.98047 0.16406-1.6289 0.30469-0.44922 0.089844-0.82031 0.14844-1.1133 0.17969-0.44531 0.039062-0.98047 0.089843-1.5 0.17578-0.50391 0.085937-1.0234 0.17578-1.5391 0.25391-0.18359 0.03125-0.64453 0.050781-1.3789 0.066406-1.5391 0.019531-3.0859 0.019531-4.625 0-0.30859-0.003906-0.67578-0.023437-1.0117-0.078125-0.53125-0.078125-1.0664-0.16016-1.5859-0.23828-0.41406-0.066406-0.78125-0.11328-1.1055-0.14062-0.57031-0.054688-0.97656-0.066406-1.4766-0.18359-0.31641-0.078125-0.85938-0.21094-1.6406-0.37891-1.5938-0.35938-2.8984-0.71094-3.9062-1.0547-1.4531-0.48437-2.6992-0.96484-3.75-1.4336-0.92188-0.42188-2.0117-0.94922-3.2812-1.6094-0.32812-0.17578-0.84375-0.46094-1.1992-0.69141-0.60938-0.39063-1.2266-0.78516-1.8438-1.1797-0.39453-0.25-0.86328-0.57812-1.4141-0.98438-0.78906-0.60156-1.3203-1-1.5586-1.1992-2.3438-1.9258-4.3711-3.9648-6.0859-6.125-0.70312-0.89453-1.1445-1.4609-1.3203-1.6953-0.57812-0.80469-1.0547-1.5859-1.5195-2.2852-0.31641-0.48828-0.56641-0.89063-0.75391-1.2148-1.2852-2.2617-2.3789-4.6406-3.2852-7.1367-0.17578-0.48828-0.34375-1.0391-0.51953-1.6445-0.21875-0.79688-0.42578-1.5-0.60156-2.1055-0.12109-0.39844-0.18359-0.83984-0.27344-1.3008-0.085937-0.48828-0.25-1.0195-0.30469-1.4531-0.125-0.95312-0.28125-1.9961-0.46484-3.1055-0.050781-0.30859-0.074219-0.67578-0.078125-0.94141-0.015625-1.1133-0.035156-2.0586-0.054688-2.8516-0.019531-0.58594-0.019531-1.1602-0.003906-1.7188 0.011719-0.625 0.03125-1.6445 0.050782-3.0586 0.011718-0.37891 0.039062-0.78906 0.12109-1.1992 0.17969-0.98828 0.28906-1.6406 0.32812-1.9453 0.085938-0.78516 0.16016-1.2812 0.21094-1.4844 0.011718-0.015625 0.11328-0.5 0.32812-1.4609 0.24609-1.0938 0.53125-2.1367 0.82422-3.1953 0.11328-0.39844 0.22656-0.76562 0.33984-1.1016 0.19922-0.58594 0.32031-0.98047 0.51953-1.4531 0.33594-0.78906 0.82031-2.0469 1.2461-2.9805 1.0938-2.4102 2.3398-4.6602 3.75-6.7305 1.0039-1.4883 2.0898-2.9102 3.2461-4.2539 1.5664-1.8203 3.1602-3.4336 4.7969-4.8398 0.89844-0.78125 1.9102-1.5938 3.0312-2.4414 0.5-0.36328 0.94141-0.62109 1.3984-0.90625 0.058594-0.039062 0.09375-0.10156 0.089844-0.17578 0-0.10156-0.035156-0.19922-0.09375-0.28516-0.046875-0.070312-0.066406-0.10937-0.066406-0.10937-1.1953-2.0117-2.0703-3.5312-2.6211-4.5664-0.78906-1.4609-1.5508-3.0039-2.2812-4.6367-0.23047-0.48828-0.41016-1-0.53906-1.5117-0.11328-0.44141-0.19141-0.97656 0-1.4102 0.28125-0.66016 0.76562-1.1055 1.4609-1.3398 0.26172-0.089844 0.51953-0.12109 0.76562-0.10156 0.54688 0.058594 1.1055 0.23047 1.6836 0.51172 0.99609 0.48828 2.2188 1.1719 3.6719 2.0469 0.35938 0.21484 0.85156 0.5 1.4844 0.85938 2.7344 1.5664 4.8594 2.8164 6.3945 3.7266 0.46875 0.28906 0.96094 0.58984 1.4609 0.91016 0.94922 0.60547 1.6719 1.0664 2.1602 1.3711 0.14453 0.09375 0.26562 0.13672 0.37109 0.12109 0.039062 0 0.074219-0.019531 0.10938-0.046875zm-14.262-3.8203c-0.011719 0.11328 0.019531 0.23828 0.089843 0.375 0.94141 1.7109 1.7695 3.2188 2.4961 4.5039 0.90625 1.6211 2.1367 3.6445 3.6641 6.1016 0.39062 0.62109 0.62109 0.98438 0.69531 1.0938 0.20312 0.32422 0.45312 0.67969 0.73828 1.0664 0.60547 0.83984 1.1992 1.7656 1.8008 2.5742 0.64063 0.85938 1.0742 1.4414 1.3047 1.7383 0.11328 0.14844 0.35938 0.35937 0.57031 0.26562 1.8789-0.79687 3.8203-1.4258 5.8203-1.8867 0.57812-0.13672 1.1445-0.23438 1.6914-0.30859 0.77344-0.10156 1.4336-0.18359 1.9805-0.26953 0.60156-0.09375 1.1758-0.14844 1.7148-0.17188 1.3203-0.03125 2.3398-0.023438 3.0586 0.03125 0.17578 0.003906 0.38672 0.039062 0.64062 0.085937 0.67578 0.125 1.2148 0.21484 1.625 0.26562 0.63672 0.074219 1.1797 0.16016 1.6367 0.26172 1.6445 0.35938 3.2148 0.82812 4.6992 1.4102 0.24609 0.089844 0.52344 0.21875 0.85547 0.37891 0.33984 0.16406 0.57031 0.066406 0.70312-0.28906 0.19922-0.52344 0.44531-1.1211 0.75391-1.7852 0.30078-0.65625 0.53125-1.1797 0.69922-1.5781 0.28516-0.69531 0.74609-1.7461 1.3711-3.1641 0.14063-0.31641 0.37891-0.85938 0.71484-1.6406 0.22656-0.51562 0.45312-1.0391 0.69531-1.5781 0.96875-2.2109 1.6797-3.8203 2.1094-4.8359 0.80078-1.8867 1.2891-3.0156 1.4492-3.375 0.058594-0.12109 0.066407-0.21875 0.023438-0.28516-0.039062-0.085938-0.09375-0.09375-0.16016-0.035157-0.22656 0.21094-0.47656 0.39062-0.73438 0.55078-0.46094 0.26953-0.69141 0.41016-0.69922 0.41016-1.3047 0.875-2.4219 1.6016-3.3438 2.1797-0.43359 0.26953-0.90625 0.58984-1.4336 0.96094-0.23047 0.17188-0.76172 0.51562-1.5781 1.0508-0.44922 0.28906-0.92969 0.60938-1.4258 0.96094-0.71875 0.5-1.625 1.0664-2.6133 1.6914-0.54688 0.35547-1.2305 0.64062-1.8867 0.60156-0.37891-0.023437-0.73438-0.10547-1.0469-0.23047-0.48828-0.21094-0.85938-0.57422-1.1367-1.1016-0.30078-0.59375-0.57422-1.1914-0.80469-1.7812-0.71484-1.7969-1.2969-3.2344-1.7383-4.3086-0.26953-0.64062-0.48828-1.1719-0.65625-1.6016-0.38672-0.96484-0.67969-1.6836-0.88672-2.1602-0.33594-0.76172-0.64844-1.6016-0.98047-2.3867-0.074219-0.17969-0.17578-0.33594-0.30078-0.46094-0.039063-0.046875-0.078125-0.039062-0.11328 0.015625-0.015626 0.023438-0.035157 0.078125-0.054688 0.17188-0.070312 0.26953-0.12891 0.48047-0.17969 0.63672-0.78516 2.4961-1.6406 4.9844-2.5508 7.4766-0.19141 0.51172-0.39844 1.0469-0.63672 1.6055-0.57422 1.3984-0.89844 2.2812-1.5742 3.3633-0.46484 0.75391-0.96875 1.3398-1.8906 1.4531-0.79688 0.09375-1.5391-0.054688-2.2383-0.44141-0.51953-0.28125-1.0195-0.57422-1.4883-0.86328-1.2617-0.78906-2.0312-1.2812-2.3203-1.4688-0.52344-0.34375-1.0195-0.64453-1.4688-0.90625-1.1211-0.64062-2.6719-1.5781-4-2.3359-0.83984-0.46484-1.6602-0.94531-2.4688-1.4258-0.21094-0.125-0.38672-0.23828-0.51172-0.33594-0.23047-0.16406-0.39844-0.28516-0.51953-0.35156-0.10156-0.058593-0.15625-0.03125-0.16016 0.085938zm2.4258 11.621c-0.10156-0.11328-0.18359-0.125-0.26562-0.054687-0.26953 0.25-0.53906 0.46094-0.81641 0.65625-0.625 0.43359-1.3203 0.97656-2.0938 1.6133-0.98438 0.80859-1.9453 1.6641-2.8633 2.5469-0.30078 0.28516-0.69531 0.70312-1.1836 1.2461-1.1992 1.3203-1.8789 2.0938-2.0547 2.3164-0.16016 0.21484-0.53906 0.71484-1.1406 1.5039-0.43359 0.57422-0.77344 1.0391-1.0156 1.3984-0.94141 1.3945-1.6914 2.6367-2.2656 3.7305-0.76172 1.4492-1.3867 2.7695-1.8789 3.9609-0.37891 0.92188-0.625 1.5586-0.73438 1.9102-0.10938 0.375-0.35156 1.1016-0.71094 2.1758-0.26172 0.76563-0.46875 1.5938-0.63672 2.4805-0.066406 0.33984-0.14453 0.67969-0.24609 1.0352-0.050781 0.16406-0.10156 0.42578-0.15625 0.78516-0.16016 1.0039-0.39453 2.1641-0.49609 3.1016-0.046875 0.44531-0.066406 1.1758-0.070313 2.1758-0.011718 1.25-0.011718 2.9414 0 5.0469 0.003907 1.1367 0.16016 2.0742 0.39063 3.2031 0.039062 0.19531 0.078124 0.48828 0.12109 0.85937 0.035157 0.28125 0.078125 0.57031 0.14844 0.85938 0.53906 2.5547 1.2852 4.9766 2.2266 7.2617 0.24609 0.60156 0.51953 1.1367 0.86328 1.8711 1.0352 2.1914 2.3359 4.2812 3.7969 6.2656 0.29687 0.40625 0.56641 0.75391 0.81641 1.0352 0.085937 0.10156 0.36328 0.44141 0.84375 1.0039 0.99609 1.1797 2.0859 2.3008 3.2852 3.3633 0.35938 0.31641 0.80859 0.67578 1.1758 0.98047 0.38672 0.32812 0.67969 0.57422 0.89453 0.73437 1.625 1.2344 3.3281 2.3398 5.125 3.3203 0.51953 0.28516 1.0234 0.54688 1.5352 0.78125 0.73047 0.33984 1.3008 0.60156 1.6914 0.77344 0.77344 0.33984 1.7148 0.69141 2.8086 1.0508 0.60938 0.21094 1.4062 0.41016 1.8984 0.55859 0.38672 0.11328 0.86328 0.23047 1.4258 0.35156 0.53516 0.10547 1.0859 0.23047 1.6445 0.37891 0.17578 0.046875 0.57031 0.10156 1.1953 0.16016 0.36328 0.039063 0.74609 0.089844 1.1406 0.16016 1.2031 0.21875 2.4219 0.32422 3.6367 0.32031h2.5195c1.0703 0 2.1914-0.10938 3.3594-0.31641 0.38672-0.074219 0.76953-0.125 1.1641-0.16406 0.65625-0.070312 1.0664-0.12891 1.2383-0.17578 0.47656-0.14062 1.0391-0.26562 1.6836-0.38672 0.55469-0.10156 1.4883-0.33984 2.8008-0.73047 0.45312-0.12891 0.99609-0.32031 1.6367-0.55859 1.4844-0.55078 2.3555-0.88672 2.5938-0.98828 2.5312-1.1094 4.9453-2.4414 7.2383-3.9961 0.44141-0.30469 0.90625-0.64062 1.3906-1.0156 0.91016-0.69141 1.5-1.1641 1.7969-1.4102 2.9062-2.4688 5.4062-5.1797 7.5-8.1484 0.83594-1.1836 1.7266-2.625 2.6797-4.3203 0.23828-0.42969 0.5-0.94531 0.78125-1.5391 0.48047-1.0195 0.82031-1.7617 1.0156-2.2109 0.39063-0.92969 0.82813-2.1289 1.3203-3.6094 0.17188-0.51953 0.28906-1.0898 0.44922-1.6016 0.14062-0.44141 0.23828-0.83984 0.30859-1.2031 0.12891-0.68359 0.35937-1.3242 0.44922-2.0352 0.050782-0.38672 0.14844-0.98047 0.30078-1.7852 0.11328-0.61328 0.17969-1.0195 0.19531-1.2188 0.035156-0.30469 0.054688-0.71875 0.058594-1.2383 0.066406-2.6797 0.058594-5.0391-0.015625-7.0859-0.023438-0.80078-0.19141-1.6406-0.37109-2.4961-0.050781-0.23438-0.089844-0.51562-0.12109-0.83984-0.03125-0.24609-0.074219-0.52344-0.14062-0.84375-0.31641-1.4141-0.69141-2.8008-1.1211-4.1562-0.42187-1.2852-0.80078-2.3242-1.1562-3.1055-0.066406-0.15625-0.30469-0.66016-0.70312-1.5195-0.27344-0.58984-0.51953-1.0898-0.73438-1.4961-0.76172-1.4336-1.6211-2.8242-2.5742-4.1797-0.28516-0.40625-0.62891-0.86328-1.0312-1.3789-0.59375-0.74609-1.0156-1.2539-1.25-1.5234-1.0469-1.1914-2.1602-2.3086-3.3281-3.3711-0.33594-0.28906-0.60938-0.52344-0.82031-0.69141-0.75-0.59375-1.4102-1.1719-2.1094-1.6602-1.0117-0.71094-1.8438-1.2617-2.5039-1.6484-0.10547-0.058594-0.55859-0.32422-1.375-0.80078-0.085937-0.046874-0.14844-0.023437-0.19141 0.058594-0.11328 0.23047-0.21875 0.44922-0.30859 0.67188-0.44922 1.0781-1.1055 2.5898-1.9648 4.5469-0.17578 0.38672-0.39844 0.91406-0.68359 1.5781-0.46875 1.0781-0.94922 2.1445-1.4414 3.2031-0.078125 0.16016-0.11328 0.30078 0.019531 0.43359 0.21875 0.21484 0.55078 0.39453 0.84375 0.61328 0.26172 0.19141 0.66016 0.48828 1.2148 0.89844 0.25 0.19141 0.51953 0.44141 0.80859 0.73828 0.46875 0.48047 0.64844 1.0234 0.53906 1.6445-0.10547 0.63672-0.48437 1.2031-1.1094 1.3984-0.26172 0.085937-0.53125 0.12109-0.80078 0.10547-0.35547-0.019532-0.83594-0.23047-1.1289-0.44141-0.32031-0.23047-0.64844-0.48438-0.98828-0.76562-0.33594-0.26562-1.0508-0.74609-2.1562-1.4336-1.0781-0.67187-2.2812-1.2617-3.6016-1.7656-1.4336-0.53906-2.5859-0.91406-3.4648-1.1055-0.41016-0.09375-0.75391-0.16016-1.0508-0.19922-0.89062-0.13672-1.8086-0.32812-2.6289-0.39844-1.2188-0.11328-2.4219-0.12109-3.6094-0.03125-0.35156 0.035157-0.85156 0.10156-1.4883 0.21094-0.57031 0.089844-1.0586 0.17188-1.4961 0.23047-0.35938 0.054687-0.70312 0.12109-1.0469 0.19922-1.5938 0.39844-3.1758 0.92969-4.7539 1.6016-0.66016 0.27344-1.3594 0.64062-2.0742 1-0.42969 0.21484-0.80859 0.42188-1.1406 0.62891-0.66016 0.39062-1.0234 0.625-1.1094 0.68359-0.51172 0.39453-0.95312 0.69531-1.3359 0.90625-0.58594 0.32031-1.4141 0.48047-2.0234 0.17578-0.51172-0.25391-0.81641-0.69531-0.91406-1.3359-0.074219-0.46484 0.019531-0.89844 0.28516-1.3008 0.37109-0.53906 0.78125-0.82031 1.4297-1.2617 0.42188-0.28516 0.94922-0.62109 1.5859-1.0039 0.16016-0.10156 0.17969-0.21484 0.058593-0.34375-0.13672-0.15625-0.22656-0.26172-0.27344-0.32031-0.73828-0.97656-1.5312-2.0312-2.3594-3.1719-0.22656-0.30469-0.48828-0.69141-0.80859-1.1719-0.41016-0.61328-0.67578-1.0117-0.80859-1.1797-0.42969-0.58984-0.75-1.1719-1.1719-1.7539 0-0.003906-0.011719-0.015625-0.015626-0.019531z"/>
</svg>
